<svg width="25" height="34" viewBox="0 0 25 34" fill="none" xmlns="http://www.w3.org/2000/svg">
<path fill-rule="evenodd" clip-rule="evenodd" d="M19.875 21.7499H17.5V26.4999H12.75V28.8749H17.5V33.6249H19.875V28.8749H24.625V26.4999H19.875V21.7499ZM9.32049 3.15131C9.06116 2.9779 8.7702 2.85727 8.46425 2.7963C8.15829 2.73534 7.84332 2.73523 7.53732 2.79599C7.23133 2.85675 6.94029 2.97718 6.68084 3.15042C6.42138 3.32365 6.19859 3.54629 6.02518 3.80563C5.85177 4.06496 5.73114 4.35592 5.67017 4.66187C5.6092 4.96783 5.6091 5.2828 5.66986 5.5888C5.73061 5.89479 5.85105 6.18583 6.02428 6.44528C6.19752 6.70474 6.42016 6.92753 6.67949 7.10094C7.20324 7.45116 7.84467 7.57897 8.46266 7.45626C9.08065 7.33356 9.62459 6.97038 9.9748 6.44663C10.325 5.92287 10.4528 5.28145 10.3301 4.66346C10.2074 4.04547 9.84424 3.50153 9.32049 3.15131ZM5.36137 1.17531C5.87973 0.81592 6.46448 0.563366 7.08149 0.43239C7.6985 0.301414 8.33542 0.294639 8.95508 0.412461C9.57475 0.530284 10.1647 0.770344 10.6906 1.11863C11.2165 1.46692 11.6678 1.91646 12.018 2.44102C12.3683 2.96558 12.6106 3.55465 12.7308 4.17386C12.851 4.79306 12.8466 5.43001 12.718 6.04751C12.5894 6.66502 12.339 7.25072 11.9816 7.77045C11.6242 8.29017 11.1668 8.7335 10.6362 9.07456C9.58863 9.73783 8.3232 9.96516 7.11024 9.708C5.89727 9.45085 4.83295 8.72959 4.14459 7.6983C3.45623 6.667 3.19842 5.40743 3.42622 4.18861C3.65402 2.9698 4.34937 1.88837 5.36374 1.17531H5.36137ZM5.07874 11.0387H10.9212C12.0361 11.0387 13.1054 11.4816 13.8937 12.2699C14.6821 13.0583 15.125 14.1275 15.125 15.2424V16.9999H12.75V15.2424C12.7532 15.0014 12.7081 14.7622 12.6173 14.5388C12.5265 14.3155 12.3919 14.1127 12.2215 13.9422C12.051 13.7717 11.8482 13.6372 11.6248 13.5464C11.4015 13.4556 11.1623 13.4105 10.9212 13.4137H5.07874C4.8377 13.4105 4.59847 13.4556 4.37515 13.5464C4.15183 13.6372 3.94896 13.7717 3.77851 13.9422C3.60805 14.1127 3.47347 14.3155 3.38269 14.5388C3.29192 14.7622 3.2468 15.0014 3.24999 15.2424V21.7499H5.62499V29.6112C5.62499 29.7372 5.67504 29.858 5.76412 29.9471C5.8532 30.0361 5.97401 30.0862 6.09999 30.0862H7.99999V32.5087H6.09999C5.34413 32.5087 4.61922 32.2084 4.08474 31.6739C3.55026 31.1395 3.24999 30.4146 3.24999 29.6587V24.1249C2.59056 24.0881 1.97203 23.7935 1.52775 23.3048C1.08347 22.8161 0.84904 22.1724 0.874993 21.5124V15.2424C0.874993 14.1275 1.31789 13.0583 2.10624 12.2699C2.8946 11.4816 3.96384 11.0387 5.07874 11.0387Z" fill="#1DB954"/>
</svg>
