<svg width="32" height="30" viewBox="0 0 32 30" fill="none" xmlns="http://www.w3.org/2000/svg">
<path d="M31.5093 10.25V0.75H22.6878V4.3125H18.2771C17.6924 4.31313 17.1318 4.56355 16.7184 5.00882C16.3049 5.45408 16.0724 6.0578 16.0718 6.6875V13.8125H9.45571V10.25H0.634277V19.75H9.45571V16.1875H16.0718V23.3125C16.0724 23.9422 16.3049 24.5459 16.7184 24.9912C17.1318 25.4364 17.6924 25.6869 18.2771 25.6875H22.6878V29.25H31.5093V19.75H22.6878V23.3125H18.2771V6.6875H22.6878V10.25H31.5093ZM7.25035 17.375H2.83963V12.625H7.25035V17.375ZM24.8932 22.125H29.3039V26.875H24.8932V22.125ZM24.8932 3.125H29.3039V7.875H24.8932V3.125Z" fill="#2B539A"/>
</svg>
