<svg width="30" height="26" viewBox="0 0 30 26" fill="none" xmlns="http://www.w3.org/2000/svg">
<path d="M6.25021 6.71875C6.25021 6.26323 6.33577 5.81216 6.50202 5.39132C6.66826 4.97047 6.91193 4.58808 7.21911 4.26597C7.52629 3.94387 7.89096 3.68836 8.29231 3.51404C8.69366 3.33972 9.12383 3.25 9.55824 3.25C9.99266 3.25 10.4228 3.33972 10.8242 3.51404C11.2255 3.68836 11.5902 3.94387 11.8974 4.26597C12.2046 4.58808 12.4482 4.97047 12.6145 5.39132C12.7807 5.81216 12.8663 6.26323 12.8663 6.71875C12.8663 7.63872 12.5178 8.52101 11.8974 9.17153C11.277 9.82204 10.4356 10.1875 9.55824 10.1875C8.6809 10.1875 7.83949 9.82204 7.21911 9.17153C6.59873 8.52101 6.25021 7.63872 6.25021 6.71875ZM9.55824 0.9375C8.096 0.9375 6.69365 1.54659 5.65969 2.63079C4.62573 3.71498 4.04485 5.18547 4.04485 6.71875C4.04485 8.25203 4.62573 9.72252 5.65969 10.8067C6.69365 11.8909 8.096 12.5 9.55824 12.5C11.0205 12.5 12.4228 11.8909 13.4568 10.8067C14.4908 9.72252 15.0716 8.25203 15.0716 6.71875C15.0716 5.18547 14.4908 3.71498 13.4568 2.63079C12.4228 1.54659 11.0205 0.9375 9.55824 0.9375ZM20.585 7.875C20.585 7.26169 20.8174 6.67349 21.231 6.23982C21.6445 5.80614 22.2055 5.5625 22.7904 5.5625C23.3753 5.5625 23.9362 5.80614 24.3498 6.23982C24.7634 6.67349 24.9957 7.26169 24.9957 7.875C24.9957 8.48831 24.7634 9.07651 24.3498 9.51018C23.9362 9.94386 23.3753 10.1875 22.7904 10.1875C22.2055 10.1875 21.6445 9.94386 21.231 9.51018C20.8174 9.07651 20.585 8.48831 20.585 7.875ZM22.7904 3.25C21.6206 3.25 20.4987 3.73728 19.6715 4.60463C18.8444 5.47199 18.3797 6.64837 18.3797 7.875C18.3797 9.10163 18.8444 10.278 19.6715 11.1454C20.4987 12.0127 21.6206 12.5 22.7904 12.5C23.9602 12.5 25.0821 12.0127 25.9092 11.1454C26.7364 10.278 27.2011 9.10163 27.2011 7.875C27.2011 6.64837 26.7364 5.47199 25.9092 4.60463C25.0821 3.73728 23.9602 3.25 22.7904 3.25ZM0.736816 18.2812C0.736816 17.3613 1.08534 16.479 1.70572 15.8285C2.32609 15.178 3.16751 14.8125 4.04485 14.8125H15.0716C15.949 14.8125 16.7904 15.178 17.4108 15.8285C18.0311 16.479 18.3797 17.3613 18.3797 18.2812V18.5403C18.3773 18.6462 18.37 18.7519 18.3576 18.8571C18.2319 19.9781 17.8341 21.0467 17.202 21.9604C15.9957 23.7064 13.7021 25.2188 9.55824 25.2188C5.41658 25.2188 3.12301 23.7064 1.91227 21.9604C1.28101 21.0464 0.883891 19.9779 0.75887 18.8571C0.747891 18.7518 0.740535 18.6461 0.736816 18.5403V18.2812ZM2.94217 18.4894V18.5056L2.95099 18.6189C3.0364 19.3347 3.29279 20.0164 3.69641 20.6007C4.41535 21.6367 5.98116 22.9062 9.55824 22.9062C13.1353 22.9062 14.7011 21.6367 15.4201 20.6007C15.8237 20.0164 16.0801 19.3347 16.1655 18.6189C16.1694 18.5804 16.1724 18.5419 16.1743 18.5033V18.2812C16.1743 17.9746 16.0581 17.6805 15.8513 17.4637C15.6446 17.2468 15.3641 17.125 15.0716 17.125H4.04485C3.7524 17.125 3.47193 17.2468 3.26514 17.4637C3.05835 17.6805 2.94217 17.9746 2.94217 18.2812V18.4894ZM22.7904 22.9062C21.4936 22.9062 20.4307 22.6981 19.5706 22.3559C19.9241 21.6768 20.1918 20.9523 20.3667 20.2006C20.9577 20.4342 21.7428 20.5938 22.7904 20.5938C25.2582 20.5938 26.2704 19.7104 26.7159 19.0536C26.9763 18.6706 27.1416 18.2255 27.1967 17.7586L27.2011 17.6939C27.1988 17.5422 27.1397 17.3975 27.0365 17.291C26.9334 17.1846 26.7945 17.125 26.6498 17.125H20.4748C20.312 16.2864 19.9729 15.4964 19.4824 14.8125H26.6498C28.1715 14.8125 29.4065 16.1075 29.4065 17.7031V17.7424C29.4038 17.8267 29.3979 17.9108 29.3888 17.9945C29.2954 18.8612 28.9933 19.6888 28.5111 20.3995C27.5804 21.7662 25.836 22.9062 22.7904 22.9062Z" fill="#2B539A"/>
</svg>
