<svg width="29" height="33" viewBox="0 0 29 33" fill="none" xmlns="http://www.w3.org/2000/svg">
<path d="M28.62 20.6946L26.3971 18.6319C26.5023 17.9321 26.5566 17.2175 26.5566 16.503C26.5566 15.7884 26.5023 15.0739 26.3971 14.374L28.62 12.3114C28.7876 12.1556 28.9076 11.9481 28.964 11.7165C29.0204 11.4849 29.0105 11.2402 28.9356 11.0149L28.905 10.9191C28.2931 9.06283 27.3767 7.34203 26.2002 5.83986L26.1391 5.76251C25.9964 5.58038 25.8062 5.44945 25.5936 5.38699C25.3809 5.32452 25.1558 5.33345 24.9479 5.4126L22.1888 6.47707C21.1707 5.57098 20.0338 4.85642 18.8053 4.35549L18.2725 1.22469C18.2323 0.989119 18.127 0.772395 17.9706 0.603315C17.8142 0.434235 17.6141 0.320803 17.3969 0.278088L17.3052 0.259672C15.5371 -0.0865573 13.6773 -0.0865573 11.9092 0.259672L11.8176 0.278088C11.6003 0.320803 11.4003 0.434235 11.2439 0.603315C11.0875 0.772395 10.9822 0.989119 10.942 1.22469L10.4058 4.37023C9.18703 4.87126 8.05209 5.58544 7.04596 6.48443L4.26649 5.4126C4.05867 5.33282 3.83342 5.32357 3.62064 5.38608C3.40787 5.44858 3.21766 5.57987 3.07529 5.76251L3.0142 5.83986C1.8391 7.3431 0.922894 9.06361 0.309387 10.9191L0.278843 11.0149C0.126125 11.4753 0.251694 11.991 0.594461 12.3114L2.84451 14.3961C2.7393 15.0886 2.6884 15.7958 2.6884 16.4993C2.6884 17.2065 2.7393 17.9137 2.84451 18.6025L0.594461 20.6872C0.426796 20.843 0.306796 21.0505 0.250417 21.2821C0.194039 21.5137 0.203954 21.7584 0.278843 21.9837L0.309387 22.0795C0.923654 23.9359 1.83318 25.6486 3.0142 27.1588L3.07529 27.2361C3.21801 27.4182 3.40822 27.5492 3.62087 27.6116C3.83352 27.6741 4.05861 27.6652 4.26649 27.586L7.04596 26.5142C8.0573 27.4166 9.18741 28.1311 10.4058 28.6284L10.942 31.7739C10.9822 32.0095 11.0875 32.2262 11.2439 32.3953C11.4003 32.5644 11.6003 32.6778 11.8176 32.7205L11.9092 32.7389C13.6936 33.087 15.5209 33.087 17.3052 32.7389L17.3969 32.7205C17.6141 32.6778 17.8142 32.5644 17.9706 32.3953C18.127 32.2262 18.2323 32.0095 18.2725 31.7739L18.8053 28.6431C20.0333 28.1435 21.1766 27.4266 22.1888 26.5215L24.9479 27.586C25.1558 27.6658 25.381 27.675 25.5938 27.6125C25.8066 27.55 25.9968 27.4187 26.1391 27.2361L26.2002 27.1588C27.3813 25.6449 28.2908 23.9359 28.905 22.0795L28.9356 21.9837C29.0883 21.5307 28.9627 21.015 28.62 20.6946ZM23.9875 14.8087C24.0724 15.3648 24.1165 15.9358 24.1165 16.5067C24.1165 17.0776 24.0724 17.6485 23.9875 18.2047L23.7635 19.6817L26.2986 22.0353C25.9143 22.9962 25.4292 23.9059 24.8529 24.7462L21.7035 23.5344L20.6379 24.4847C19.8268 25.2066 18.924 25.7738 17.9467 26.1716L16.6536 26.6983L16.0462 30.2711C15.0877 30.389 14.12 30.389 13.1615 30.2711L12.554 26.691L11.2712 26.1569C10.304 25.7591 9.40461 25.1919 8.60029 24.4736L7.53466 23.5197L4.36491 24.7425C3.78797 23.899 3.30606 22.9893 2.91917 22.0316L5.48145 19.6559L5.26085 18.1826C5.1794 17.6338 5.13529 17.0665 5.13529 16.5067C5.13529 15.9431 5.17601 15.3796 5.26085 14.8308L5.48145 13.3575L2.91917 10.9817C3.30267 10.0204 3.78797 9.1143 4.36491 8.27083L7.53466 9.49368L8.60029 8.53971C9.40461 7.82147 10.304 7.25424 11.2712 6.85645L12.5574 6.32974L13.1649 2.74958C14.1185 2.63171 15.0925 2.63171 16.0496 2.74958L16.657 6.32237L17.95 6.84908C18.9241 7.24688 19.8302 7.8141 20.6413 8.53603L21.7069 9.48632L24.8563 8.27451C25.4332 9.11799 25.9152 10.0278 26.302 10.9854L23.7669 13.339L23.9875 14.8087ZM14.6106 9.65575C11.3119 9.65575 8.63762 12.5582 8.63762 16.1383C8.63762 19.7185 11.3119 22.6209 14.6106 22.6209C17.9093 22.6209 20.5836 19.7185 20.5836 16.1383C20.5836 12.5582 17.9093 9.65575 14.6106 9.65575ZM17.2984 19.0555C16.9459 19.4392 16.527 19.7435 16.0657 19.9508C15.6044 20.1582 15.1099 20.2645 14.6106 20.2636C13.5959 20.2636 12.6422 19.8327 11.9228 19.0555C11.5692 18.6729 11.2889 18.2182 11.0978 17.7176C10.9068 17.2169 10.8088 16.6802 10.8096 16.1383C10.8096 15.037 11.2067 14.002 11.9228 13.2212C12.6422 12.4403 13.5959 12.0131 14.6106 12.0131C15.6253 12.0131 16.579 12.4403 17.2984 13.2212C17.652 13.6038 17.9324 14.0585 18.1234 14.5591C18.3144 15.0598 18.4124 15.5965 18.4116 16.1383C18.4116 17.2396 18.0145 18.2747 17.2984 19.0555Z" fill="#2B539A"/>
</svg>
