<svg width="44" height="38" viewBox="0 0 44 38" fill="none" xmlns="http://www.w3.org/2000/svg">
<path d="M43.8748 10.6874L40.7498 1.31243C40.6411 0.98902 40.4295 0.710087 40.1473 0.518231C39.8652 0.326375 39.528 0.232143 39.1873 0.249928H4.81229C4.47157 0.232143 4.13438 0.326375 3.85224 0.518231C3.5701 0.710087 3.35851 0.98902 3.24979 1.31243L0.124794 10.6874C0.102282 10.8533 0.102282 11.0215 0.124794 11.1874V20.5624C0.124794 20.9768 0.289414 21.3743 0.582439 21.6673C0.875465 21.9603 1.27289 22.1249 1.68729 22.1249H3.24979V37.7499H6.37479V22.1249H15.7498V37.7499H40.7498V22.1249H42.3123C42.7267 22.1249 43.1241 21.9603 43.4171 21.6673C43.7102 21.3743 43.8748 20.9768 43.8748 20.5624V11.1874C43.8973 11.0215 43.8973 10.8533 43.8748 10.6874ZM37.6248 34.6249H18.8748V22.1249H37.6248V34.6249ZM40.7498 18.9999H34.4998V12.7499H31.3748V18.9999H23.5623V12.7499H20.4373V18.9999H12.6248V12.7499H9.49979V18.9999H3.24979V11.4374L5.93729 3.37493H38.0623L40.7498 11.4374V18.9999Z" fill="#4970B5"/>
</svg>
